# xmcd
#
# Track frame offsets: 
#        150
#        20784
#        42901
#        69904
#        90360
#        117801
#        134978
#        164162
#        188991
#
# Disc length: 2867 seconds
#
# Revision: 0
# Processed by: cddbd v1.5.2PL0 Copyright (c) Steve Scherf et al.
# Submitted via: ExactAudioCopy v0.95b3
#
DISCID=800b3109
DTITLE=Lightstone - Es Wird Nie Mehr So Sein
DYEAR=2009
DGENRE=Blues
TTITLE0=Overhead Woman
TTITLE1=Es Wird Nie Mehr So Sein
TTITLE2=He Mann
TTITLE3=Medienterror
TTITLE4=Blues Vom Egoistischen Scheiﬂer
TTITLE5=Ich Geh Alleine
TTITLE6=Der Blues Hatt Ihn Wieder
TTITLE7=Wie Es Miir Geht
TTITLE8=LRBQ (n' Mocca Und n' Bier)
EXTD=
EXTT0=
EXTT1=
EXTT2=
EXTT3=
EXTT4=
EXTT5=
EXTT6=
EXTT7=
EXTT8=
PLAYORDER=
